<svg width="91" height="98" viewBox="0 0 91 98" fill="none" xmlns="http://www.w3.org/2000/svg">
<path d="M100.528 -96.7301C118.849 -95.7026 137.051 -91.2168 151.977 -80.5429C166.849 -69.9086 176.552 -54.0143 183.759 -37.2124C191.079 -20.1465 196.442 -1.87472 193.593 16.4751C190.695 35.1382 180.761 51.8983 167.791 65.627C154.82 79.3563 138.478 89.4913 120.181 94.179C101.788 98.8914 82.0882 99.0454 64.4117 92.1134C47.1387 85.3395 34.604 70.9718 23.3634 56.2107C12.3107 41.6963 1.90206 26.0007 0.232604 7.83364C-1.4304 -10.2633 6.09402 -27.4533 14.1795 -43.7287C22.3371 -60.1491 31.4344 -76.8349 47.0606 -86.4265C62.849 -96.1176 82.0312 -97.7673 100.528 -96.7301Z" fill="#4E4477"/>
</svg>
