<svg width="40" height="40" viewBox="0 0 40 40" fill="none" xmlns="http://www.w3.org/2000/svg">
<circle cx="20" cy="20" r="20" fill="#FCD9E0"/>
<path opacity="0.4" d="M28.8401 21.17C29.2301 21.17 29.5401 20.85 29.5401 20.45V19.57C29.5401 15.64 28.3401 14.45 24.4201 14.45H18.1201V16.88C18.5101 16.88 18.8301 17.2 18.8301 17.59V20.27C18.8301 20.66 18.5101 20.98 18.1201 20.98V23.49C18.5101 23.49 18.8301 23.81 18.8301 24.2V26.88C18.8301 27.27 18.5101 27.59 18.1201 27.59V30H24.4201C28.3401 30 29.5401 28.8 29.5401 24.88C29.5401 24.49 29.2301 24.17 28.8401 24.17C28.0001 24.17 27.3301 23.5 27.3301 22.67C27.3301 21.84 28.0001 21.17 28.8401 21.17Z" fill="#F48199"/>
<path d="M15.5702 14.46C15.5802 14.46 15.5802 14.46 15.5702 14.46H15.5802H24.4102C24.4802 14.46 24.5502 14.46 24.6102 14.46C24.6002 14.44 24.6002 14.43 24.6002 14.41C24.5702 14.06 24.7102 13.72 24.9702 13.46C25.1002 13.33 25.1802 13.15 25.1802 12.96C25.1802 12.77 25.1002 12.59 24.9702 12.46L24.4202 11.9C23.4402 10.91 22.3602 10 21.1002 10C19.8502 10 18.7602 10.91 17.7802 11.9L15.2202 14.46C15.3302 14.46 15.4502 14.46 15.5702 14.46Z" fill="#F48199"/>
<path d="M17.41 17.59V20.27C17.41 20.66 17.73 20.98 18.12 20.98V23.49C17.73 23.49 17.41 23.81 17.41 24.2V26.88C17.41 27.27 17.73 27.59 18.12 27.59V30H15.58C11.66 30 10.46 28.8 10.46 24.88V24.45C10.46 24.05 10.77 23.74 11.16 23.74C12 23.74 12.67 23.06 12.67 22.23C12.67 21.4 12 20.72 11.16 20.72C10.77 20.72 10.46 20.41 10.46 20.01V19.58C10.46 15.65 11.66 14.46 15.58 14.46H18.11V16.89C17.73 16.89 17.41 17.21 17.41 17.59Z" fill="#F48199"/>
</svg>
