<svg width="95" height="19" viewBox="0 0 95 19" fill="none" xmlns="http://www.w3.org/2000/svg">
<path d="M14.52 3.864H9.072V18H5.784V3.864H0.336V0.959999H14.52V3.864ZM16.6354 18V0.959999H19.9474V18H16.6354ZM22.4706 9.36C22.4706 8.32 22.6546 7.304 23.0226 6.312C23.4066 5.304 23.9586 4.392 24.6786 3.576C25.3986 2.744 26.2786 2.088 27.3186 1.608C28.3586 1.112 29.5426 0.863999 30.8706 0.863999C32.4386 0.863999 33.7906 1.208 34.9266 1.896C36.0786 2.584 36.9346 3.48 37.4946 4.584L34.9506 6.336C34.6626 5.696 34.2866 5.192 33.8226 4.824C33.3586 4.44 32.8626 4.176 32.3346 4.032C31.8066 3.872 31.2866 3.792 30.7746 3.792C29.9426 3.792 29.2146 3.96 28.5906 4.296C27.9826 4.632 27.4706 5.072 27.0546 5.616C26.6386 6.16 26.3266 6.768 26.1186 7.44C25.9266 8.112 25.8306 8.784 25.8306 9.456C25.8306 10.208 25.9506 10.936 26.1906 11.64C26.4306 12.328 26.7666 12.944 27.1986 13.488C27.6466 14.016 28.1746 14.44 28.7826 14.76C29.4066 15.064 30.0866 15.216 30.8226 15.216C31.3506 15.216 31.8866 15.128 32.4306 14.952C32.9746 14.776 33.4786 14.496 33.9426 14.112C34.4066 13.728 34.7666 13.232 35.0226 12.624L37.7346 14.184C37.3986 15.032 36.8466 15.752 36.0786 16.344C35.3266 16.936 34.4786 17.384 33.5346 17.688C32.5906 17.992 31.6546 18.144 30.7266 18.144C29.5106 18.144 28.3986 17.896 27.3906 17.4C26.3826 16.888 25.5106 16.216 24.7746 15.384C24.0546 14.536 23.4866 13.592 23.0706 12.552C22.6706 11.496 22.4706 10.432 22.4706 9.36ZM39.9557 18V0.983999H43.2677V9.072L50.4197 0.959999H54.0677L47.5397 8.52L54.4757 18H50.7317L45.4277 10.656L43.2677 12.912V18H39.9557ZM56.0104 18V0.959999H59.3224V18H56.0104ZM75.6216 3.864H70.1736V18H66.8856V3.864H61.4376V0.959999H75.6216V3.864ZM87.8889 5.424C87.7769 5.312 87.5689 5.16 87.2649 4.968C86.9769 4.776 86.6169 4.592 86.1849 4.416C85.7689 4.24 85.3129 4.088 84.8169 3.96C84.3209 3.816 83.8169 3.744 83.3049 3.744C82.4089 3.744 81.7289 3.912 81.2649 4.248C80.8169 4.584 80.5929 5.056 80.5929 5.664C80.5929 6.128 80.7369 6.496 81.0249 6.768C81.3129 7.04 81.7449 7.272 82.3209 7.464C82.8969 7.656 83.6169 7.864 84.4809 8.088C85.6009 8.36 86.5689 8.696 87.3849 9.096C88.2169 9.48 88.8489 9.992 89.2809 10.632C89.7289 11.256 89.9529 12.088 89.9529 13.128C89.9529 14.04 89.7849 14.824 89.4489 15.48C89.1129 16.12 88.6489 16.64 88.0569 17.04C87.4649 17.44 86.7929 17.736 86.0409 17.928C85.2889 18.104 84.4889 18.192 83.6409 18.192C82.7929 18.192 81.9449 18.104 81.0969 17.928C80.2489 17.752 79.4329 17.504 78.6489 17.184C77.8649 16.848 77.1449 16.448 76.4889 15.984L77.9529 13.128C78.0969 13.272 78.3529 13.464 78.7209 13.704C79.0889 13.928 79.5369 14.16 80.0649 14.4C80.5929 14.624 81.1689 14.816 81.7929 14.976C82.4169 15.136 83.0489 15.216 83.6889 15.216C84.5849 15.216 85.2649 15.064 85.7289 14.76C86.1929 14.456 86.4249 14.024 86.4249 13.464C86.4249 12.952 86.2409 12.552 85.8729 12.264C85.5049 11.976 84.9929 11.728 84.3369 11.52C83.6809 11.296 82.9049 11.056 82.0089 10.8C80.9369 10.496 80.0409 10.16 79.3209 9.792C78.6009 9.408 78.0649 8.928 77.7129 8.352C77.3609 7.776 77.1849 7.056 77.1849 6.192C77.1849 5.024 77.4569 4.048 78.0009 3.264C78.5609 2.464 79.3129 1.864 80.2569 1.464C81.2009 1.048 82.2489 0.839999 83.4009 0.839999C84.2009 0.839999 84.9529 0.927999 85.6569 1.104C86.3769 1.28 87.0489 1.512 87.6729 1.8C88.2969 2.088 88.8569 2.4 89.3529 2.736L87.8889 5.424ZM92.0717 18V14.544H94.7117V18H92.0717Z" fill="#EE4266"/>
</svg>
