<svg width="60" height="60" viewBox="0 0 60 60" fill="none" xmlns="http://www.w3.org/2000/svg">
<circle cx="30" cy="30" r="30" fill="#EE4266"/>
<path d="M36.4701 34.83L36.8601 37.99C36.9601 38.82 36.0701 39.4 35.3601 38.97L31.1701 36.48C30.7101 36.48 30.2601 36.45 29.8201 36.39C30.5601 35.52 31.0001 34.42 31.0001 33.23C31.0001 30.39 28.5401 28.09 25.5001 28.09C24.3401 28.09 23.2701 28.42 22.3801 29C22.3501 28.75 22.3401 28.5 22.3401 28.24C22.3401 23.69 26.2901 20 31.1701 20C36.0501 20 40.0001 23.69 40.0001 28.24C40.0001 30.94 38.6101 33.33 36.4701 34.83Z" stroke="white" stroke-width="1.5" stroke-linecap="round" stroke-linejoin="round"/>
<path d="M31 33.2298C31 34.4198 30.56 35.5198 29.82 36.3898C28.83 37.5898 27.26 38.3598 25.5 38.3598L22.89 39.9098C22.45 40.1798 21.89 39.8098 21.95 39.2998L22.2 37.3298C20.86 36.3998 20 34.9098 20 33.2298C20 31.4698 20.94 29.9198 22.38 28.9998C23.27 28.4198 24.34 28.0898 25.5 28.0898C28.54 28.0898 31 30.3898 31 33.2298Z" stroke="white" stroke-width="1.5" stroke-linecap="round" stroke-linejoin="round"/>
</svg>
