<svg width="390" height="1353" viewBox="0 0 390 1353" fill="none" xmlns="http://www.w3.org/2000/svg">
<g opacity="0.4">
<path d="M-362.599 380.791C-100.64 501.473 36.8935 498.189 114.357 471.485C200.808 441.68 251.169 369.348 284.785 392.326C306.311 407.039 305.552 450.309 296.243 538.273C268.02 805.017 228.485 846.985 273.643 907.811C336.893 993.03 458.205 969.521 577.64 1080C665.359 1161.14 696.749 1263.37 709.198 1340.32" stroke="#FCD9E0" stroke-width="1.14818" stroke-miterlimit="10"/>
<path d="M-361.024 370.616C-106.019 487.514 33.4606 489.541 109.554 467.661C194.588 443.208 241.764 374.084 273.959 397.812C294.659 413.066 293.874 455.561 284.893 540.52C257.627 798.691 218.536 842.027 263.807 901.96C328.297 986.868 452.761 956.589 576.111 1065.79C578.801 1068.17 581.425 1070.54 584.007 1072.95C669.203 1152.57 701.599 1255.74 715.306 1333.42" stroke="#FCD9E0" stroke-width="1.14818" stroke-miterlimit="10"/>
<path d="M-359.433 360.455C-111.403 473.562 29.8519 480.956 104.76 463.852C188.254 444.786 232.373 378.847 263.142 403.314C283.02 419.117 282.21 460.841 273.547 542.782C247.219 792.348 208.411 837.159 253.993 896.13C319.466 980.834 447.401 943.663 574.607 1051.6C577.398 1053.97 580.181 1056.33 582.873 1058.77C670.757 1138.53 706.109 1245.9 721.434 1326.54" stroke="#FCD9E0" stroke-width="1.14818" stroke-miterlimit="10"/>
<path d="M-357.853 350.284C-116.755 459.607 25.9992 472.407 99.9574 460.036C181.736 446.354 222.979 383.618 252.312 408.807C271.371 425.172 270.518 466.093 262.195 545.035C236.802 786.025 198.389 832.243 244.171 890.291C310.768 974.73 442.08 930.712 573.093 1037.41C576.002 1039.77 578.902 1042.14 581.718 1044.58C673.206 1123.61 710.596 1236.03 727.542 1319.64" stroke="#FCD9E0" stroke-width="1.14818" stroke-miterlimit="10"/>
<path d="M-356.265 340.112C-122.128 445.656 21.8716 463.875 95.1583 456.216C175.003 447.873 213.595 388.407 241.49 414.303C259.732 431.234 258.842 471.356 250.849 547.291C226.398 779.693 188.382 827.323 234.356 884.447C302.11 968.636 436.808 917.738 571.592 1023.2C574.614 1025.57 577.639 1027.94 580.599 1030.39C675.196 1109.16 715.112 1226.17 733.679 1312.75" stroke="#FCD9E0" stroke-width="1.14818" stroke-miterlimit="10"/>
<path d="M-354.676 329.941C-127.497 431.707 17.4128 455.335 90.3665 452.406C167.998 449.286 204.205 393.201 230.676 419.803C248.098 437.312 247.171 476.621 239.506 549.55C216.003 773.368 178.395 822.406 224.545 878.611C293.459 962.535 431.576 904.743 570.083 1009.01C573.231 1011.38 576.382 1013.74 579.463 1016.22C677.15 1094.72 719.627 1216.32 739.802 1305.87" stroke="#FCD9E0" stroke-width="1.14818" stroke-miterlimit="10"/>
<path d="M-353.085 319.772C-132.862 417.749 12.5709 446.738 85.5647 448.584C160.662 450.48 194.824 398.021 219.849 425.293C236.455 443.389 235.483 481.885 228.153 551.796C205.595 767.029 168.407 817.478 214.724 872.762C284.821 956.431 426.362 891.715 568.568 994.805C571.847 997.183 575.115 999.537 578.313 1002.02C679.073 1080.26 724.116 1206.46 745.913 1298.97" stroke="#FCD9E0" stroke-width="1.14818" stroke-miterlimit="10"/>
<path d="M-351.496 309.6C-138.23 403.793 4.16059 424.901 80.7687 444.767C147.249 438.249 185.429 402.847 209.028 430.788C224.812 449.477 223.814 487.142 216.797 554.061C195.181 760.705 158.424 812.558 204.898 866.93C276.187 950.331 421.168 878.675 567.047 980.612C570.438 982.982 573.842 985.347 577.17 987.846C680.992 1065.85 728.634 1196.62 752.035 1292.09" stroke="#FCD9E0" stroke-width="1.14818" stroke-miterlimit="10"/>
<path d="M-349.907 299.429C-143.594 389.839 -0.507796 414.43 75.9728 440.95C139.601 437.76 176.025 407.681 198.207 436.284C213.165 455.572 212.141 492.398 205.458 556.306C184.772 754.35 148.471 807.619 195.094 861.082C267.587 944.209 416.016 865.59 565.547 966.402C569.06 968.77 572.587 971.133 576.043 973.65C682.914 1051.42 733.137 1186.74 758.167 1285.19" stroke="#FCD9E0" stroke-width="1.14818" stroke-miterlimit="10"/>
<path d="M-348.319 289.257C-148.962 375.882 -5.18353 403.959 71.1734 437.13C131.95 437.265 166.613 412.523 187.386 441.778C201.512 461.668 200.464 497.661 194.11 558.558C174.377 748.036 138.521 802.683 185.28 855.236C258.995 938.09 410.868 852.484 564.042 952.198C567.673 954.564 571.326 956.931 574.908 959.46C684.818 1037.02 737.645 1176.87 764.292 1278.29" stroke="#FCD9E0" stroke-width="1.14818" stroke-miterlimit="10"/>
<path d="M-346.728 279.086C-154.325 361.93 -9.85485 393.488 66.3745 433.313C124.299 436.776 157.186 417.372 176.56 447.27C189.845 467.77 188.784 502.926 182.768 560.808C163.983 741.692 128.582 797.74 175.466 849.39C250.415 931.958 405.736 839.351 562.536 937.993C566.293 940.356 570.063 942.728 573.772 945.265C686.718 1022.63 742.152 1167.01 770.418 1271.39" stroke="#FCD9E0" stroke-width="1.14818" stroke-miterlimit="10"/>
<path d="M-345.137 268.912C-159.7 347.969 -14.5197 383.024 61.5733 429.506C116.645 436.296 147.745 422.23 165.727 452.771C178.159 473.879 177.099 508.193 171.402 563.071C153.562 735.368 118.632 792.804 165.639 843.561C241.837 925.842 400.592 826.214 561.013 923.805C564.894 926.167 568.774 928.529 572.614 931.096C688.588 1008.27 746.639 1157.16 776.521 1264.51" stroke="#FCD9E0" stroke-width="1.14818" stroke-miterlimit="10"/>
<path d="M-343.547 258.741C-165.064 334.016 -19.2015 372.544 56.7825 425.679C109.001 435.797 138.295 427.07 154.917 458.262C166.488 479.977 165.43 513.451 160.064 565.321C143.18 729.042 108.718 787.852 155.827 837.709C233.289 919.689 395.477 813.019 559.512 909.597C563.513 911.951 567.526 914.331 571.501 916.904C690.492 993.904 751.174 1147.29 782.665 1257.61" stroke="#FCD9E0" stroke-width="1.14818" stroke-miterlimit="10"/>
<path d="M-341.949 248.577C-170.432 320.059 -23.8764 362.074 51.983 421.866C101.346 435.309 128.828 431.915 144.095 463.759C154.797 486.083 153.755 518.714 148.72 567.576C132.767 722.702 98.7955 782.902 146.01 831.868C224.751 913.542 390.365 799.805 558 895.394C562.127 897.746 566.263 900.131 570.356 902.708C692.371 979.538 755.664 1137.43 788.797 1250.73" stroke="#FCD9E0" stroke-width="1.14818" stroke-miterlimit="10"/>
<path d="M-340.366 238.4C-175.8 306.102 -28.5475 351.604 47.1882 418.047C93.6978 434.817 119.352 436.756 133.268 469.259C143.09 492.185 142.076 523.98 137.353 569.823C122.346 716.361 88.8733 777.928 136.178 826.017C216.207 907.372 385.216 786.58 556.477 881.184C560.724 883.532 564.982 885.924 569.2 888.509C694.239 965.191 760.152 1127.56 794.889 1243.81" stroke="#FCD9E0" stroke-width="1.14818" stroke-miterlimit="10"/>
<path d="M-338.776 228.228C-181.166 292.146 -33.2201 341.132 42.3899 414.228C86.0495 434.328 109.861 441.591 122.452 474.751C131.384 498.277 130.4 529.238 126.023 572.087C111.96 710.034 78.9858 772.968 126.38 820.185C207.71 901.209 380.117 773.332 554.974 866.999C559.344 869.342 563.723 871.741 568.083 874.352C696.135 950.868 764.675 1117.71 801.036 1236.92" stroke="#FCD9E0" stroke-width="1.14818" stroke-miterlimit="10"/>
<path d="M-337.188 218.068C-186.536 278.205 -37.9064 330.677 37.5878 410.421C78.382 433.828 100.351 446.431 111.623 480.257C119.656 504.375 118.718 534.51 114.674 574.342C101.557 703.701 69.089 767.993 116.566 814.339C199.209 895.02 374.991 760.057 553.471 852.787C557.966 855.123 562.463 857.531 566.937 860.14C698.002 936.552 769.175 1107.86 807.137 1230.03" stroke="#FCD9E0" stroke-width="1.14818" stroke-miterlimit="10"/>
<path d="M-335.592 207.902C-191.899 264.252 -42.5702 320.204 32.7897 406.606C70.7415 433.357 90.8421 451.254 100.798 485.749C107.941 510.452 107.042 539.772 103.318 576.6C91.1473 697.369 59.1904 763.017 106.739 808.5C190.706 888.834 369.849 746.776 551.94 838.602C556.556 840.928 561.176 843.348 565.776 845.964C699.872 922.252 773.656 1097.99 813.237 1223.15" stroke="#FCD9E0" stroke-width="1.14818" stroke-miterlimit="10"/>
<path d="M-334.004 197.745C-197.286 250.32 -72.5523 331.065 27.9824 402.808C65.6027 429.654 81.3115 456.088 89.9636 491.263C96.1972 516.552 95.3531 545.054 91.9588 578.874C80.7269 691.055 49.2912 758.043 96.9098 802.673C182.219 882.624 364.71 733.468 550.424 824.4C555.158 826.719 559.908 829.155 564.631 831.776C701.744 907.952 778.141 1088.12 819.358 1216.24" stroke="#FCD9E0" stroke-width="1.14818" stroke-miterlimit="10"/>
<path d="M-332.418 187.587C-202.635 236.372 -59.3924 302.456 23.185 398.997C52.9723 433.824 71.7839 460.901 79.1391 496.765C84.4574 522.635 83.673 550.319 80.607 581.132C70.3234 684.728 39.4068 753.047 87.0922 796.831C173.745 876.395 359.567 720.139 548.905 810.198C553.767 812.513 558.63 814.962 563.486 817.591C703.555 893.873 782.643 1078.27 825.476 1209.36" stroke="#FCD9E0" stroke-width="1.14818" stroke-miterlimit="10"/>
<path d="M-330.831 177.429C-208.013 222.424 -60.6117 290.137 18.3825 395.192C46.401 432.458 62.2454 465.714 68.3115 502.272C72.7086 528.716 71.9889 555.594 69.2522 583.395C59.9119 678.404 29.3883 748.177 77.2677 790.997C165.525 869.926 354.446 706.58 547.384 796.005C552.368 798.303 557.351 800.771 562.334 803.408C705.465 879.498 787.137 1068.41 831.58 1202.45" stroke="#FCD9E0" stroke-width="1.14818" stroke-miterlimit="10"/>
<path d="M-329.246 167.271C-213.388 208.482 -61.2929 278.372 13.574 391.386C126.43 561.76 -12.9905 714.304 67.447 785.162C159.141 865.939 359.313 684.421 561.184 789.227C707.37 865.122 791.64 1058.56 837.685 1195.56" stroke="#FCD9E0" stroke-width="1.14818" stroke-miterlimit="10"/>
</g>
</svg>
