<svg width="1440" height="750" viewBox="0 0 1440 750" fill="none" xmlns="http://www.w3.org/2000/svg">
<path d="M119.001 -404.69C281.394 -181.328 330.338 -8.59985 342.814 112.376C353.209 213.229 334.026 237.201 359.12 325.233C413.581 516.264 606.261 762.402 785.662 765.061C874.035 766.37 891.291 698.162 992.157 619.336C1082.9 548.429 1237.82 473.128 1515.97 472.249" stroke="#FCD9E0" stroke-width="1.28375" stroke-miterlimit="10"/>
<path d="M103.458 -382.728C267.017 -173.07 318.685 -6.42721 334.551 109.88C347.888 207.759 335.575 233.885 364.865 323.816C426.309 512.473 606.262 744.983 781.681 753.383C872.037 757.715 896.253 696.024 1001.66 620.994C1094.45 554.94 1249.15 482.708 1523.32 480.741" stroke="#FCD9E0" stroke-width="1.28375" stroke-miterlimit="10"/>
<path d="M87.9182 -360.769C252.636 -164.816 307.101 -4.17215 326.299 107.393C342.654 202.436 337.022 230.498 370.622 322.408C438.683 508.586 606.515 727.98 777.718 741.722C870.208 749.142 901.09 693.872 1011.17 622.666C1105.9 561.401 1260.48 492.307 1530.68 489.267" stroke="#FCD9E0" stroke-width="1.28375" stroke-miterlimit="10"/>
<path d="M72.3764 -338.808C238.253 -156.558 295.612 -1.81453 318.035 104.923C337.451 197.222 338.344 227.049 376.397 321.007C450.72 504.636 606.988 711.399 773.765 730.063C868.521 740.673 905.8 691.691 1020.7 624.343C1117.19 567.778 1271.83 501.915 1538.03 497.772" stroke="#FCD9E0" stroke-width="1.28375" stroke-miterlimit="10"/>
<path d="M56.8377 -316.848C223.897 -148.294 284.254 0.640585 309.796 102.421C332.313 192.132 339.582 223.582 382.132 319.583C462.392 500.608 607.605 695.202 769.778 718.381C866.94 732.27 910.349 689.429 1030.19 625.996C1128.33 574.054 1283.15 511.499 1545.35 506.277" stroke="#FCD9E0" stroke-width="1.28375" stroke-miterlimit="10"/>
<path d="M41.298 -294.889C209.501 -140.05 273.035 3.20217 301.545 99.9345C327.258 187.182 340.651 220.055 387.891 318.172C473.777 496.576 608.387 679.41 765.808 706.715C865.484 724 914.757 687.091 1039.7 627.663C1139.36 580.244 1294.48 521.096 1552.71 514.768" stroke="#FCD9E0" stroke-width="1.28375" stroke-miterlimit="10"/>
<path d="M25.7575 -272.93C195.131 -131.81 262.005 5.85711 293.293 97.4469C322.302 182.369 341.618 216.527 393.644 316.761C484.888 492.545 609.28 663.996 761.838 695.045C864.114 715.859 919.084 684.694 1049.21 629.332C1150.28 586.334 1305.82 530.704 1560.06 523.274" stroke="#FCD9E0" stroke-width="1.28375" stroke-miterlimit="10"/>
<path d="M10.2299 -250.958C180.756 -123.533 251.198 8.62482 285.056 94.9698C317.496 177.703 342.495 213.024 399.412 315.36C495.758 488.545 610.277 648.95 757.884 683.386C862.836 707.873 923.282 682.191 1058.74 631.009C1161.09 592.318 1317.13 540.298 1567.41 531.779" stroke="#FCD9E0" stroke-width="1.28375" stroke-miterlimit="10"/>
<path d="M-5.32536 -229.01C166.36 -115.289 240.608 11.4518 276.787 92.4745C312.83 173.161 343.185 209.514 405.156 313.938C506.39 484.574 611.306 634.224 753.898 671.708C861.592 700.028 927.346 679.544 1068.23 632.664C1171.81 598.2 1328.47 549.884 1574.78 540.299" stroke="#FCD9E0" stroke-width="1.28375" stroke-miterlimit="10"/>
<path d="M-20.8583 -207.061C151.99 -107.041 230.309 14.3399 268.542 89.9779C308.343 168.712 343.822 206.01 410.916 312.518C516.826 480.637 612.366 619.789 749.937 660.03C860.381 692.337 931.337 676.772 1077.75 634.321C1182.47 603.964 1339.81 559.474 1582.11 548.779" stroke="#FCD9E0" stroke-width="1.28375" stroke-miterlimit="10"/>
<path d="M-36.4064 -185.089C137.622 -98.7621 220.288 17.2851 260.289 87.5032C304.081 164.384 344.333 202.585 416.669 311.116C527.092 476.794 613.425 605.664 745.96 648.373C859.176 684.855 935.226 673.875 1087.26 635.998C1193.04 609.641 1351.13 569.081 1589.46 557.3" stroke="#FCD9E0" stroke-width="1.28375" stroke-miterlimit="10"/>
<path d="M-51.9462 -163.131C123.225 -90.5247 210.573 20.2199 252.037 85.0154C300.075 160.091 344.76 199.214 422.422 309.705C537.222 473.016 614.474 591.781 741.991 636.703C857.962 677.559 939.051 670.824 1096.77 637.666C1203.57 615.208 1362.47 578.675 1596.81 565.8" stroke="#FCD9E0" stroke-width="1.28375" stroke-miterlimit="10"/>
<path d="M-67.4887 -141.169C108.843 -82.27 201.151 23.1109 243.783 82.5308C296.346 155.79 345.062 195.876 428.179 308.297C547.23 469.321 615.475 578.123 738.026 625.036C856.696 670.462 942.815 667.622 1106.28 639.333C1214.06 620.678 1373.8 588.272 1604.16 574.306" stroke="#FCD9E0" stroke-width="1.28375" stroke-miterlimit="10"/>
<path d="M-83.0288 -119.21C94.4663 -74.0119 192.007 25.9207 235.532 80.0438C292.92 151.406 345.293 192.62 433.927 306.877C557.132 465.7 616.418 564.64 734.047 613.364C855.38 663.602 946.527 664.253 1115.78 640.994C1224.54 626.055 1385.13 597.86 1611.5 582.818" stroke="#FCD9E0" stroke-width="1.28375" stroke-miterlimit="10"/>
<path d="M-98.5692 -97.2515C80.0873 -65.7603 183.102 28.5966 227.265 77.5449C289.785 146.835 345.431 189.425 439.676 305.463C566.956 462.175 617.253 551.35 730.071 601.689C853.952 656.964 950.212 660.728 1125.29 642.645C1234.99 631.32 1396.45 607.445 1618.85 591.294" stroke="#FCD9E0" stroke-width="1.28375" stroke-miterlimit="10"/>
<path d="M-114.111 -75.29C65.7258 -57.4916 174.387 31.0966 219.029 75.0685C286.98 142.001 345.525 186.331 445.446 304.06C576.72 458.757 618.019 538.203 726.115 590.033C852.416 650.585 953.889 657.068 1134.81 644.334C1245.46 636.547 1407.79 617.062 1626.2 599.82" stroke="#FCD9E0" stroke-width="1.28375" stroke-miterlimit="10"/>
<path d="M-129.632 -53.3171C51.3454 -49.2367 158.335 44.625 210.794 72.5983C296.602 118.35 345.558 183.327 451.223 302.666C586.464 455.422 618.65 525.16 722.147 578.364C850.695 644.458 957.571 653.221 1144.32 646.001C1255.92 641.683 1419.12 626.66 1633.54 608.338" stroke="#FCD9E0" stroke-width="1.28375" stroke-miterlimit="10"/>
<path d="M-145.189 -31.3712C36.9506 -40.9919 151.722 45.1657 202.525 70.098C291.567 113.799 345.495 180.377 456.958 301.242C596.153 452.196 619.117 512.197 718.18 566.696C848.78 638.572 961.254 649.237 1153.84 647.662C1266.41 646.746 1430.46 636.249 1640.91 616.824" stroke="#FCD9E0" stroke-width="1.28375" stroke-miterlimit="10"/>
<path d="M-160.732 -9.40989C22.5718 -32.7405 144.834 44.9712 194.274 67.6102C286.559 109.873 345.394 177.529 462.706 299.845C605.826 449.044 619.438 499.278 714.198 555.044C846.609 632.965 964.951 645.119 1163.33 649.349C1276.91 651.773 1441.78 645.863 1648.24 625.351" stroke="#FCD9E0" stroke-width="1.28375" stroke-miterlimit="10"/>
<path d="M-176.272 12.5491C8.19076 -24.4855 139.615 38.5244 186.026 65.1258C277.427 117.544 345.262 174.773 468.467 298.431C615.506 445.987 619.591 486.369 710.237 543.371C844.174 627.581 968.708 640.824 1172.86 651.006C1287.48 656.718 1453.13 655.457 1655.6 633.841" stroke="#FCD9E0" stroke-width="1.28375" stroke-miterlimit="10"/>
<path d="M-191.812 34.5074C-6.19034 -16.231 130.533 39.6893 177.768 62.6382C274.881 109.823 345.079 172.101 474.219 297.014C625.172 443.012 619.538 473.452 706.264 531.698C841.402 622.462 972.483 636.44 1182.36 652.676C1298.05 661.625 1464.45 665.054 1662.95 642.353" stroke="#FCD9E0" stroke-width="1.28375" stroke-miterlimit="10"/>
<path d="M-207.355 56.4688C-20.5677 -7.97369 121.084 40.5926 169.516 60.1504C272.005 101.525 344.87 169.52 479.98 295.599C634.861 440.127 619.291 460.494 702.301 520.028C838.293 617.544 976.325 631.91 1191.88 654.341C1308.68 666.501 1475.78 674.642 1670.3 650.853" stroke="#FCD9E0" stroke-width="1.28375" stroke-miterlimit="10"/>
</svg>
